<svg xmlns="http://www.w3.org/2000/svg" viewBox="0 0 512 512">
  <defs>
    <linearGradient id="bg" x1="0" y1="0" x2="1" y2="1">
      <stop offset="0" stop-color="#12b76a"/>
      <stop offset="0.55" stop-color="#039855"/>
      <stop offset="1" stop-color="#05603a"/>
    </linearGradient>
    <linearGradient id="leaf" x1="0" y1="0" x2="1" y2="1">
      <stop offset="0" stop-color="#d9f99d"/>
      <stop offset="1" stop-color="#84cc16"/>
    </linearGradient>
  </defs>
  <rect width="512" height="512" rx="112" fill="url(#bg)"/>
  <!-- recycle arrows -->
  <g fill="none" stroke="#ffffff" stroke-width="26" stroke-linecap="round" stroke-linejoin="round" opacity="0.95">
    <path d="M193 286 L150 360 L236 360"/>
    <path d="M150 360 L120 308"/>
    <path d="M276 165 L319 240 L233 240"/>
    <path d="M319 240 L349 188"/>
    <path d="M256 360 L342 360 L300 432"/>
  </g>
  <!-- central leaf -->
  <path d="M256 150 C 196 188 176 250 206 318 C 268 300 312 252 312 178 C 296 168 276 158 256 150 Z" fill="url(#leaf)"/>
  <path d="M214 300 C 240 252 268 226 300 206" stroke="#05603a" stroke-width="12" fill="none" stroke-linecap="round" opacity="0.5"/>
</svg>
